<svg xmlns="http://www.w3.org/2000/svg" width="73" height="73" viewBox="0 0 73 73" fill="none"><rect width="73" height="73" fill="#FF6A14"></rect><path d="M62 36.049C62 39.6571 61.3027 43.0225 59.9081 46.1449C58.5135 49.2673 56.6502 51.9619 54.3182 54.2286L59.2565 60.3347L52.535 62L49.2428 57.9755C47.4138 58.9932 45.4705 59.768 43.4129 60.3C41.3553 60.832 39.2062 61.098 36.9657 61.098C33.4906 61.098 30.2213 60.4503 27.1578 59.1551C24.0942 57.8599 21.4536 56.0905 19.2359 53.8469C17.0183 51.6034 15.2579 48.9435 13.9547 45.8673C12.6516 42.7912 12 39.5184 12 36.049C12 32.5796 12.6516 29.3068 13.9547 26.2306C15.2579 23.1544 17.0183 20.4946 19.2359 18.251C21.4536 16.0075 24.0942 14.2381 27.1578 12.9429C30.2213 11.6476 33.4906 11 36.9657 11C40.4408 11 43.7101 11.6476 46.7737 12.9429C49.8372 14.2381 52.4893 16.0075 54.7298 18.251C56.9703 20.4946 58.7421 23.1544 60.0453 26.2306C61.3484 29.3068 62 32.5796 62 36.049ZM45.3333 43.1959L49.8601 48.7469C51.369 47.1279 52.5464 45.2313 53.3923 43.0571C54.2382 40.883 54.6612 38.5469 54.6612 36.049C54.6612 33.4585 54.2039 31.0415 53.2894 28.798C52.3749 26.5544 51.1289 24.6116 49.5514 22.9694C47.9739 21.3272 46.0992 20.0435 43.9273 19.1184C41.7554 18.1932 39.4348 17.7306 36.9657 17.7306C34.4966 17.7306 32.1875 18.1932 30.0384 19.1184C27.8893 20.0435 26.0261 21.3272 24.4486 22.9694C22.8711 24.6116 21.6251 26.5544 20.7106 28.798C19.7961 31.0415 19.3388 33.4585 19.3388 36.049C19.3388 38.6395 19.7961 41.0565 20.7106 43.3C21.6251 45.5435 22.8711 47.4748 24.4486 49.0939C26.0261 50.7129 27.8893 51.9966 30.0384 52.9449C32.1875 53.8932 34.4966 54.3674 36.9657 54.3674C38.3832 54.3674 39.7663 54.217 41.1152 53.9163C42.4641 53.6157 43.7101 53.1646 44.8532 52.5633L38.6118 44.8612L45.3333 43.1959Z" fill="white"></path></svg>